<svg xmlns="http://www.w3.org/2000/svg" preserveAspectRatio="xMidYMid meet" data-bbox="0 0 1082.77 341.34" viewBox="0 0 1082.77 341.34" data-type="color" role="presentation" aria-hidden="true" aria-label=""><g><path d="M355.51 0c-14.86 0-26.93 12.06-26.93 26.92 0 7.53 3.1 14.35 8.1 19.23l-106.6 109.76 50.66-102.92c2.15.56 4.41.85 6.74.85 14.86 0 26.92-12.06 26.92-26.92S302.34 0 287.47 0s-26.92 12.06-26.92 26.92c0 9.93 5.39 18.6 13.4 23.27l-50.37 102.34V53.58c13.07-1.84 23.14-13.08 23.14-26.65 0-14.86-12.06-26.92-26.92-26.92s-26.92 12.06-26.92 26.92c0 13.66 10.19 24.94 23.37 26.68v100.05L165.2 50.32c8.12-4.64 13.6-13.38 13.6-23.39 0-14.86-12.06-26.92-26.92-26.92s-26.92 12.06-26.92 26.92 12.06 26.92 26.92 26.92c2.24 0 4.42-.28 6.5-.8l50.48 102.2L103.87 45.29c4.49-4.81 7.25-11.26 7.25-18.36C111.12 12.07 99.06.01 84.2.01S57.27 12.07 57.27 26.93 69.33 53.85 84.2 53.85c5.12 0 9.91-1.43 13.98-3.91l107.7 112.82c-7.8 4.72-13.01 13.28-13.01 23.05 0 14.86 12.06 26.92 26.92 26.92s26.92-12.06 26.92-26.92c0-9.78-5.23-18.35-13.04-23.07L342.62 50.57c3.83 2.09 8.22 3.28 12.89 3.28 14.86 0 26.93-12.06 26.93-26.92S370.38 0 355.51 0m-87.63 26.92c0-10.8 8.79-19.59 19.59-19.59s19.59 8.79 19.59 19.59-8.79 19.59-19.59 19.59-19.59-8.79-19.59-19.59m-116.01 19.6c-10.8 0-19.59-8.79-19.59-19.59s8.79-19.59 19.59-19.59 19.59 8.79 19.59 19.59-8.79 19.59-19.59 19.59m48.33-19.6c0-10.8 8.79-19.59 19.59-19.59s19.59 8.79 19.59 19.59-8.79 19.59-19.59 19.59-19.59-8.79-19.59-19.59m-135.6 0c0-10.8 8.79-19.59 19.59-19.59s19.59 8.79 19.59 19.59-8.79 19.59-19.59 19.59S64.6 37.72 64.6 26.92M239.39 185.8c0 10.8-8.79 19.59-19.59 19.59s-19.59-8.79-19.59-19.59 8.79-19.59 19.59-19.59 19.59 8.79 19.59 19.59M355.51 46.52c-10.8 0-19.59-8.79-19.59-19.59s8.79-19.59 19.59-19.59 19.59 8.79 19.59 19.59-8.79 19.59-19.59 19.59" fill="#009fe3" data-color="1"></path><path d="M225.1 340.11h-9.47v-71.58h9.47zm50.89 0h-9.47v-63.14h-23.58v-8.45h56.74v8.45H276v63.14Zm51.84-21.48h-27.05v-8.84h27.05zm32.52 21.48h-9.47v-63.14H327.3v-8.45h56.74v8.45h-23.68v63.14Zm93.52 0h-53.42v-71.58h51.76v8.45h-42.29v21.88h39.6v8.45h-39.6v24.37h43.95v8.45ZM524.53 315l9.47 2.4c-1.99 7.78-5.56 13.72-10.72 17.81s-11.47 6.13-18.92 6.13-13.99-1.57-18.82-4.71-8.51-7.7-11.04-13.66q-3.78-8.94-3.78-19.2c0-7.46 1.42-13.97 4.27-19.52s6.9-9.77 12.16-12.65 11.04-4.32 17.36-4.32c7.16 0 13.18 1.82 18.07 5.47 4.88 3.65 8.29 8.78 10.2 15.39l-9.33 2.2c-1.66-5.21-4.07-9.01-7.23-11.39q-4.74-3.57-11.91-3.57c-5.5 0-10.1 1.32-13.79 3.96s-6.29 6.18-7.79 10.63-2.25 9.03-2.25 13.76c0 6.09.89 11.41 2.66 15.96s4.53 7.94 8.28 10.19c3.74 2.25 7.8 3.37 12.16 3.37 5.31 0 9.8-1.53 13.48-4.59s6.17-7.61 7.47-13.63Zm37.45 25.11h-9.47v-71.58h9.47v29.39h37.16v-29.39h9.47v71.58h-9.47v-33.74h-37.16zm77.89 0h-9.08v-71.58h9.72l37.6 56.2v-56.2h9.08v71.58h-9.72l-37.6-56.29zm66.85-34.86c0-11.88 3.19-21.18 9.57-27.91 6.38-6.72 14.62-10.08 24.71-10.08 6.61 0 12.57 1.58 17.87 4.74 5.31 3.16 9.35 7.56 12.13 13.21s4.17 12.05 4.17 19.21-1.46 13.75-4.4 19.48c-2.93 5.73-7.08 10.07-12.45 13.01-5.37 2.95-11.17 4.42-17.38 4.42-6.74 0-12.76-1.63-18.07-4.88-5.31-3.26-9.33-7.7-12.06-13.33-2.74-5.63-4.1-11.59-4.1-17.87Zm9.77.15c0 8.63 2.32 15.42 6.96 20.39 4.64 4.96 10.46 7.45 17.46 7.45s13-2.51 17.6-7.52c4.61-5.01 6.91-12.12 6.91-21.34 0-5.83-.98-10.91-2.95-15.26s-4.85-7.71-8.64-10.11c-3.79-2.39-8.05-3.59-12.77-3.59-6.71 0-12.47 2.3-17.31 6.91-4.83 4.61-7.25 12.3-7.25 23.07Zm121.73 34.71h-44.73v-71.58h9.47v63.14h35.25v8.45Zm14.9-34.86c0-11.88 3.19-21.18 9.57-27.91 6.38-6.72 14.62-10.08 24.71-10.08 6.61 0 12.56 1.58 17.87 4.74s9.35 7.56 12.13 13.21 4.17 12.05 4.17 19.21-1.46 13.75-4.39 19.48-7.08 10.07-12.45 13.01c-5.37 2.95-11.17 4.42-17.38 4.42-6.74 0-12.76-1.63-18.07-4.88-5.31-3.26-9.33-7.7-12.06-13.33s-4.1-11.59-4.1-17.87m9.76.15c0 8.63 2.32 15.42 6.96 20.39 4.64 4.96 10.46 7.45 17.46 7.45s13-2.51 17.6-7.52c4.61-5.01 6.91-12.12 6.91-21.34 0-5.83-.99-10.91-2.95-15.26-1.97-4.35-4.85-7.71-8.64-10.11-3.79-2.39-8.05-3.59-12.77-3.59-6.71 0-12.48 2.3-17.31 6.91s-7.25 12.3-7.25 23.07Zm131.94 6.64h-21.04v-8.45h30.32v26.56c-4.65 3.71-9.46 6.5-14.4 8.37-4.95 1.87-10.03 2.81-15.23 2.81-7.03 0-13.42-1.51-19.17-4.52s-10.08-7.37-13.01-13.07-4.4-12.07-4.4-19.11 1.46-13.48 4.37-19.52 7.11-10.53 12.57-13.46c5.47-2.93 11.77-4.4 18.9-4.4 5.18 0 9.85.84 14.04 2.52 4.18 1.68 7.46 4.02 9.84 7.01 2.38 3 4.18 6.91 5.42 11.73l-8.54 2.34c-1.07-3.65-2.41-6.52-4-8.6q-2.385-3.135-6.84-5.01c-2.96-1.26-6.25-1.88-9.86-1.88-4.33 0-8.07.66-11.23 1.98s-5.71 3.05-7.64 5.21a24.8 24.8 0 0 0-4.52 7.09c-1.82 4.43-2.73 9.24-2.73 14.42 0 6.39 1.1 11.73 3.3 16.03s5.39 7.49 9.59 9.58c4.2 2.08 8.66 3.13 13.38 3.13 4.1 0 8.11-.79 12.01-2.37 3.91-1.58 6.87-3.26 8.89-5.05v-13.33Zm59.38 28.07h-9.47v-30.32l-27.59-41.26h11.52l14.09 21.59c2.63 4.02 5.06 8.07 7.29 12.13 2.15-3.77 4.76-8 7.81-12.69l13.88-21.04h11.04l-28.57 41.26v30.32Z" fill="#885ea4" fill-rule="evenodd" data-color="2"></path><path d="M15.93 340.11 0 268.53h21.01l7.56 40.07 11.07-40.07h20.93l11.1 40.02 7.57-40.02h20.9l-15.78 71.58H62.67l-12.56-45.07-12.51 45.07zm87.59-23.68 21.05-1.32c.46 3.42 1.38 6.02 2.78 7.81 2.28 2.9 5.53 4.35 9.77 4.35 3.16 0 5.59-.74 7.3-2.22s2.56-3.2 2.56-5.15-.81-3.52-2.44-4.98-5.4-2.85-11.33-4.15c-9.7-2.18-16.62-5.08-20.75-8.69-4.17-3.61-6.25-8.22-6.25-13.82 0-3.68 1.07-7.15 3.2-10.42s5.34-5.84 9.62-7.72c4.28-1.87 10.15-2.81 17.6-2.81 9.15 0 16.12 1.7 20.92 5.1s7.66 8.81 8.57 16.24l-20.85 1.22c-.55-3.22-1.72-5.57-3.49-7.03s-4.22-2.2-7.35-2.2c-2.57 0-4.51.54-5.81 1.64-1.3 1.09-1.95 2.42-1.95 3.98 0 1.14.54 2.16 1.61 3.08 1.04.94 3.52 1.82 7.42 2.64 9.67 2.08 16.59 4.19 20.78 6.32 4.18 2.13 7.23 4.78 9.13 7.93 1.9 3.16 2.86 6.69 2.86 10.6 0 4.59-1.27 8.82-3.81 12.7-2.54 3.87-6.09 6.81-10.65 8.81s-10.3 3-17.24 3c-12.17 0-20.61-2.34-25.29-7.03-4.69-4.69-7.34-10.64-7.96-17.87Z" fill-rule="evenodd" fill="#5c2483" data-color="3"></path></g></svg>